<?xml version="1.0" encoding="UTF-8" standalone="no"?>
<!DOCTYPE svg PUBLIC "-//W3C//DTD SVG 1.1//EN" "http://www.w3.org/Graphics/SVG/1.1/DTD/svg11.dtd">
<svg width="100%" height="100%" viewBox="0 0 280 265" version="1.1" xmlns="http://www.w3.org/2000/svg" xmlns:xlink="http://www.w3.org/1999/xlink" xml:space="preserve" xmlns:serif="http://www.serif.com/" style="fill-rule:evenodd;clip-rule:evenodd;stroke-linejoin:round;stroke-miterlimit:2;">
    <g transform="matrix(1,0,0,1,-851.571,-124.98)">
        <g>
            <path d="M976.854,299.474L908.053,337.334L998.531,389.965L1063.77,352.637L976.854,299.474Z" style="fill:rgb(207,207,207);"/>
            <path d="M971.851,219.827L887.559,268.036L908.094,337.334L974.879,300.587L971.851,219.827Z" style="fill:rgb(221,221,221);"/>
            <g transform="matrix(-0.499014,-0.288106,0.0609318,-0.318915,1220.78,639.213)">
                <path d="M729.406,504.933L485.697,504.933L486.887,341.699L668.479,342.774L729.406,504.933Z" style="fill:rgb(235,235,235);"/>
            </g>
            <g transform="matrix(0.236988,0.410476,-0.40683,0.234883,1048.08,-250.904)">
                <path d="M838.347,374.246C838.347,366.383 832.021,360 824.228,360C816.435,360 810.109,366.383 810.109,374.246L810.109,474.794C810.109,482.656 816.435,489.04 824.228,489.04C832.021,489.04 838.347,482.656 838.347,474.794L838.347,374.246Z" style="fill:rgb(235,235,235);"/>
            </g>
            <g transform="matrix(-0.0518416,0.471133,-0.466948,-0.0513811,1341.79,-118.575)">
                <path d="M838.347,374.246C838.347,366.383 832.021,360 824.228,360C816.435,360 810.109,366.383 810.109,374.246L810.109,474.794C810.109,482.656 816.435,489.04 824.228,489.04C832.021,489.04 838.347,482.656 838.347,474.794L838.347,374.246Z" style="fill:rgb(235,235,235);"/>
            </g>
            <g transform="matrix(-0.0518416,0.471133,-0.466948,-0.0513811,1122.7,-151.598)">
                <path d="M838.347,374.246C838.347,366.383 832.021,360 824.228,360C816.435,360 810.109,366.383 810.109,374.246L810.109,474.794C810.109,482.656 816.435,489.04 824.228,489.04C832.021,489.04 838.347,482.656 838.347,474.794L838.347,374.246Z" style="fill:rgb(235,235,235);"/>
            </g>
            <g transform="matrix(0.471547,0.0479332,-0.0475074,0.467358,636.818,-82.7421)">
                <path d="M838.347,374.246C838.347,366.383 832.021,360 824.228,360C816.435,360 810.109,366.383 810.109,374.246L810.109,474.794C810.109,482.656 816.435,489.04 824.228,489.04C832.021,489.04 838.347,482.656 838.347,474.794L838.347,374.246Z" style="fill:rgb(235,235,235);"/>
            </g>
            <g transform="matrix(0.410476,-0.236988,0.234883,0.40683,491.827,188.929)">
                <path d="M838.347,374.246C838.347,366.383 832.021,360 824.228,360C816.435,360 810.109,366.383 810.109,374.246L810.109,474.794C810.109,482.656 816.435,489.04 824.228,489.04C832.021,489.04 838.347,482.656 838.347,474.794L838.347,374.246Z" style="fill:rgb(235,235,235);"/>
            </g>
            <g transform="matrix(0.239852,0.0903362,-0.117923,0.313097,870.695,76.1652)">
                <path d="M838.347,370.816C838.347,364.847 832.021,360 824.228,360C816.435,360 810.109,364.847 810.109,370.816L810.109,478.224C810.109,484.193 816.435,489.04 824.228,489.04C832.021,489.04 838.347,484.193 838.347,478.224L838.347,370.816Z" style="fill:white;"/>
            </g>
            <g transform="matrix(0.12815,0.221962,-0.289745,0.167284,1062.21,47.3796)">
                <path d="M838.347,370.816C838.347,364.847 832.021,360 824.228,360C816.435,360 810.109,364.847 810.109,370.816L810.109,478.224C810.109,484.193 816.435,489.04 824.228,489.04C832.021,489.04 838.347,484.193 838.347,478.224L838.347,370.816Z" style="fill:white;"/>
            </g>
            <g transform="matrix(0.247566,-0.0663352,0.0865926,0.323168,750.298,191.673)">
                <path d="M838.347,370.816C838.347,364.847 832.021,360 824.228,360C816.435,360 810.109,364.847 810.109,370.816L810.109,478.224C810.109,484.193 816.435,489.04 824.228,489.04C832.021,489.04 838.347,484.193 838.347,478.224L838.347,370.816Z" style="fill:white;"/>
            </g>
            <g transform="matrix(0.568764,0,0,0.568764,513.113,133.344)">
                <circle cx="774.005" cy="341.879" r="18.121" style="fill:rgb(20,129,253);"/>
            </g>
            <g transform="matrix(1,0,0,1,322.65,158.443)">
                <path d="M623.516,165.609C623.516,165.609 568.008,106.845 599.425,78.184C630.841,49.523 665.628,38.266 682.606,41.169C699.585,44.072 719.28,71.883 721.916,104.473C724.551,137.062 706.448,101.607 706.448,101.607C706.448,101.607 704.986,49.24 678.129,51.67C651.271,54.1 601.851,86.664 603.749,99.341C605.648,112.019 614.733,142.26 628.681,156.678C642.628,171.097 623.516,165.609 623.516,165.609Z" style="fill:rgb(20,129,253);"/>
            </g>
            <g transform="matrix(-0.463077,-0.267357,0.0838984,-0.439121,1267.26,636.566)">
                <path d="M729.406,504.933L485.697,504.933L501.275,341.33L693.53,342.774L729.406,504.933Z" style="fill:rgb(235,235,235);"/>
            </g>
            <path d="M1009.17,338.68L1084.71,285.008L1063.77,352.637L998.633,389.965L1009.17,338.68Z" style="fill:rgb(224,224,224);"/>
        </g>
    </g>
</svg>
