<?xml version="1.0" encoding="UTF-8" standalone="no"?>
<!DOCTYPE svg PUBLIC "-//W3C//DTD SVG 1.1//EN" "http://www.w3.org/Graphics/SVG/1.1/DTD/svg11.dtd">
<svg width="100%" height="100%" viewBox="0 0 260 260" version="1.1" xmlns="http://www.w3.org/2000/svg" xmlns:xlink="http://www.w3.org/1999/xlink" xml:space="preserve" xmlns:serif="http://www.serif.com/" style="fill-rule:evenodd;clip-rule:evenodd;stroke-linejoin:round;stroke-miterlimit:2;">
    <g transform="matrix(1,0,0,1,2.56036,-33.8297)">
        <path d="M199.543,142.788C199.543,105.371 169.165,74.994 131.748,74.994L123.131,74.994C85.714,74.994 55.337,105.371 55.337,142.788L55.337,151.405C55.337,188.822 85.714,219.199 123.131,219.199L131.748,219.199C169.165,219.199 199.543,188.822 199.543,151.405L199.543,142.788Z" style="fill:rgb(245,190,179);"/>
    </g>
    <g transform="matrix(1,0,0,1,-3.43577,-11.7074)">
        <ellipse cx="65.76" cy="233.161" rx="10.307" ry="8.854" style="fill:rgb(245,190,179);"/>
    </g>
    <g transform="matrix(1,0,0,1,130.826,-11.7074)">
        <ellipse cx="65.76" cy="233.161" rx="10.307" ry="8.854" style="fill:rgb(245,190,179);"/>
    </g>
    <g transform="matrix(1,0,0,1.10422,0.430167,-26.1128)">
        <path d="M99.06,182.625L86.406,241.472L183.842,241.472L167.715,182.625L99.06,182.625Z" style="fill:rgb(0,87,181);"/>
    </g>
    <g transform="matrix(1,0,0,1.10422,0.430167,-26.1128)">
        <path d="M90.078,176.254L67.283,246.51C67.283,246.51 105.448,251.163 115.926,248.135C123.732,245.88 124.782,235.286 129.57,235.161C134.358,235.035 137.029,245.039 144.655,247.382C154.329,250.355 188.197,246.18 188.197,246.18L173.001,176.254L90.078,176.254Z" style="fill:rgb(0,123,255);"/>
    </g>
    <g transform="matrix(0.981329,0,0,0.691558,3.76015,-17.7911)">
        <path d="M84.657,104.981C104.506,61.339 125.682,12.284 153.159,30.959C162.613,37.386 180.469,53.948 192.465,72.234L162.452,66.118C164.236,90.495 170.336,92.464 183.132,112.605C107.242,120.83 107.894,109.919 84.657,104.981Z" style="fill:rgb(0,123,255);"/>
    </g>
    <g transform="matrix(0.981329,0,0,0.981329,3.76015,-51.283)">
        <path d="M55.167,140.942C40.993,134.556 45.457,119.422 43.996,98.628C54.719,95.921 68.851,98.897 84.657,104.663C115.012,114.365 132.251,113.157 145.971,113.04C156.988,112.946 159.32,113.724 182.814,111.334C201.525,120.009 228.176,122.21 230.792,130.038C227.154,134.899 223.788,155.498 206.593,156.97C164.841,126.045 65.646,148.886 55.167,140.942Z" style="fill:rgb(0,83,172);"/>
    </g>
    <g transform="matrix(1,0,0,1,0.430167,-7.743)">
        <path d="M183.842,234.969L225.759,223.007L179.712,174.093L176.468,195.529C179.235,208.758 177.438,223.818 183.842,234.969Z" style="fill:rgb(0,87,181);"/>
    </g>
    <g transform="matrix(-0.996387,-0.0849311,-0.0849311,0.996387,277.149,8.45632)">
        <path d="M183.954,235.243L220.024,223.56L185.712,169.355L168.794,188.312C170.907,204.256 178.225,224.021 183.954,235.243Z" style="fill:rgb(0,87,181);"/>
    </g>
    <g transform="matrix(1.04264,0,0,1.10487,1.88958,-44.0288)">
        <path d="M55.245,154.763C50.384,163.459 64.342,225.189 73.524,219.417L86.331,211.13C93.181,225.302 104.677,236.606 122.871,242.02C139.819,236.901 150.168,229.881 157.834,216.004L170.646,221.706C185.782,212.68 193.886,161.395 189.848,159.966L125.4,184.889C125.4,184.889 55.273,154.712 55.245,154.763Z" style="fill:rgb(243,243,243);"/>
    </g>
    <g transform="matrix(0.852526,0,0,0.852526,29.3782,-2.40966)">
        <path d="M92.924,174.405C96.679,170.01 113.998,166.566 121.838,164.276C134.02,168.117 150.101,170.142 153.83,174.405C157.559,178.668 152.163,185.627 144.214,189.853C134.636,188.341 124.874,186.456 121.266,183.315C113.002,189.66 108.114,191.351 99.307,190.647C94.744,187.262 89.169,178.8 92.924,174.405Z" style="fill:rgb(249,249,249);"/>
    </g>
    <g transform="matrix(0.814209,0,0,0.814209,28.6451,-10.5789)">
        <g transform="matrix(2.2169,0,0,1.84741,-124.587,-168.658)">
            <path d="M111.657,173.091C111.657,165.013 106.192,158.454 99.459,158.454C92.727,158.454 87.261,165.013 87.261,173.091L87.261,176.751C87.261,184.83 92.727,191.389 99.459,191.389C106.192,191.389 111.657,184.83 111.657,176.751L111.657,173.091Z" style="fill:white;"/>
        </g>
        <g transform="matrix(1.231,0,0,1.27117,-22.2766,-67.8606)">
            <path d="M111.657,170.266C111.657,163.747 106.192,158.454 99.459,158.454C92.727,158.454 87.261,163.747 87.261,170.266L87.261,179.576C87.261,186.096 92.727,191.389 99.459,191.389C106.192,191.389 111.657,186.096 111.657,179.576L111.657,170.266Z" style="fill:rgb(46,46,46);"/>
        </g>
        <g transform="matrix(2.2169,0,0,1.84741,-56.3942,-168.658)">
            <path d="M111.657,173.091C111.657,165.013 106.192,158.454 99.459,158.454C92.727,158.454 87.261,165.013 87.261,173.091L87.261,176.751C87.261,184.83 92.727,191.389 99.459,191.389C106.192,191.389 111.657,184.83 111.657,176.751L111.657,173.091Z" style="fill:white;"/>
        </g>
        <g transform="matrix(1.231,0,0,1.27117,37.1856,-67.8606)">
            <path d="M111.657,170.266C111.657,163.747 106.192,158.454 99.459,158.454C92.727,158.454 87.261,163.747 87.261,170.266L87.261,179.576C87.261,186.096 92.727,191.389 99.459,191.389C106.192,191.389 111.657,186.096 111.657,179.576L111.657,170.266Z" style="fill:rgb(46,46,46);"/>
        </g>
        <g transform="matrix(3.43508,0,0,3.43508,-244.683,-417.398)">
            <circle cx="99.457" cy="164.637" r="1.849" style="fill:white;"/>
        </g>
        <g transform="matrix(3.43508,0,0,3.43508,-185.299,-417.398)">
            <circle cx="99.457" cy="164.637" r="1.849" style="fill:white;"/>
        </g>
    </g>
    <g transform="matrix(0.837209,0,0,0.847981,26.1664,-27.9296)">
        <path d="M84.646,78.106L74.555,94.321C107.994,106.828 153.169,107.928 187.476,101.352L173.439,85.16C161.391,85.419 148.15,88.849 136.18,88.175C117.832,87.143 87.222,79 84.646,78.106Z" style="fill:rgb(229,100,153);"/>
    </g>
    <g transform="matrix(1.55458,0,0,1.55458,-57.8933,-117.259)">
        <path d="M117.319,174.61C117.321,172.702 120.505,174.81 122.673,174.415C124.359,174.108 128.44,173.677 128.438,175.39C128.435,177.298 125.437,179.549 123.075,179.948C120.169,180.438 117.316,176.914 117.319,174.61Z" style="fill:rgb(255,102,114);"/>
    </g>
    <g transform="matrix(1.55458,0,0,1.55458,-64.9211,-113.411)">
        <path d="M131.632,174.932C132.32,175.641 128.737,177.339 127.756,177.46C125.736,177.71 123.578,176.441 123.148,174.421C122.937,173.431 126.511,174.417 127.399,174.421C128.053,174.424 130.633,173.9 131.632,174.932Z" style="fill:rgb(255,139,160);"/>
    </g>
    <g transform="matrix(0.812451,0,0,0.853898,37.5249,-3.15063)">
        <path d="M111.627,159.113C113.041,155.964 123.335,156.274 124.147,159.438C123.341,160.95 120.426,161.422 118.313,161.544C115.388,161.444 112.001,160.77 111.627,159.113Z" style="fill:rgb(239,151,133);"/>
    </g>
    <g transform="matrix(1,0,0,1,5.2799,-5.72638)">
        <path d="M91.009,263.073C91.454,262.433 91.688,261.707 91.688,260.968C91.688,258.644 89.418,256.757 86.622,256.757C83.826,256.757 81.557,258.644 81.557,260.968C81.557,261.707 81.791,262.433 82.235,263.073L91.009,263.073Z" style="fill:rgb(139,67,53);"/>
    </g>
    <g transform="matrix(1,0,0,1,82.3718,-5.72638)">
        <path d="M91.009,263.073C91.454,262.433 91.688,261.707 91.688,260.968C91.688,258.644 89.418,256.757 86.622,256.757C83.826,256.757 81.557,258.644 81.557,260.968C81.557,261.707 81.791,262.433 82.235,263.073L91.009,263.073Z" style="fill:rgb(139,67,53);"/>
    </g>
</svg>
